<svg width="80" height="31" viewBox="0 0 80 31" fill="none" xmlns="http://www.w3.org/2000/svg">
<path d="M15.9757 5.61219C14.2621 5.61219 12.6823 6.2548 11.5042 7.32583C10.3261 6.2548 8.7731 5.61219 7.05946 5.61219C3.36443 5.61219 0.338781 8.61106 0.338781 12.3329V16.8044C0.338781 18.0093 1.35626 19 2.58793 19C3.81961 19 4.81031 18.0093 4.81031 16.8044V12.3329C4.81031 11.1012 5.82778 10.0837 7.05946 10.0837C8.29114 10.0837 9.25506 11.1012 9.25506 12.3329V16.8044C9.25506 18.0093 10.2725 19 11.5042 19C12.7359 19 13.7266 18.0093 13.7266 16.8044V12.3329C13.7266 11.1012 14.7441 10.0837 15.9757 10.0837C17.2074 10.0837 18.2249 11.1012 18.2249 12.3329V16.8044C18.2249 18.0093 19.2156 19 20.4473 19C21.679 19 22.6964 18.0093 22.6964 16.8044V12.3329C22.6964 8.63783 19.6708 5.61219 15.9757 5.61219ZM11.5042 21.5437C10.2725 21.5437 9.28184 22.5344 9.28184 23.7661C9.28184 24.9977 10.2725 25.9884 11.5042 25.9884C12.7359 25.9884 13.7266 24.9977 13.7266 23.7661C13.7266 22.5344 12.7359 21.5437 11.5042 21.5437ZM27.5581 4.54116C28.7898 4.54116 29.7537 3.55046 29.7537 2.34556C29.7537 1.11388 28.7898 0.123184 27.5581 0.123184C26.3264 0.123184 25.3625 1.11388 25.3625 2.34556C25.3625 3.55046 26.3264 4.54116 27.5581 4.54116ZM27.5581 5.63896C26.3264 5.63896 25.3625 6.62966 25.3625 7.83456V16.8044C25.3625 18.0093 26.3264 19 27.5581 19C28.7898 19 29.7537 18.0093 29.7537 16.8044V7.83456C29.7537 6.62966 28.7898 5.63896 27.5581 5.63896ZM44.7393 5.61219C43.5343 5.61219 42.5169 6.60289 42.5169 7.83456V12.3329C42.5169 13.5378 41.4994 14.5285 40.2677 14.5285C39.0628 14.5285 38.0721 13.5378 38.0721 12.3329V7.83456C38.0721 6.60289 37.0279 5.61219 35.823 5.61219C34.5913 5.61219 33.5738 6.60289 33.5738 7.83456V12.3329C33.5738 16.0011 36.5727 19 40.2677 19C41.071 19 41.8475 18.8929 42.5704 18.6251V23.3644C42.5169 24.5693 41.6065 25.56 40.348 25.56H40.4819C39.2502 25.56 38.2863 26.5507 38.2863 27.7556C38.2863 28.9605 39.2502 29.978 40.4284 29.978C44.0163 29.9512 46.9349 27.0595 46.9884 23.4715V23.4448V23.3912V23.3377V12.44V12.3329V7.83456C46.9884 6.60289 45.9977 5.61219 44.7393 5.61219ZM33.5738 25.56C32.3421 25.56 31.3514 26.5507 31.3514 27.7556C31.3514 29.0141 32.3421 30.0048 33.5738 30.0048C34.7787 30.0048 35.823 29.0141 35.823 27.7556C35.823 26.5507 34.7787 25.56 33.5738 25.56ZM63.0686 12.3061C63.0419 8.61106 60.043 5.61219 56.3479 5.61219C52.6797 5.61219 49.654 8.61106 49.654 12.3061C49.654 16.0011 52.6797 19 56.3479 19C60.043 19 63.0419 16.0011 63.0686 12.3061ZM56.3479 14.6088C55.0627 14.6088 54.0452 13.5913 54.0452 12.3061C54.0452 11.0209 55.0627 10.0034 56.3479 10.0034C57.6332 10.0034 58.7042 11.0209 58.7042 12.3061C58.7042 13.5913 57.6332 14.6088 56.3479 14.6088ZM72.429 19C76.124 19 79.1229 16.0011 79.1229 12.3061V7.83456C79.1229 6.60289 78.1054 5.61219 76.8738 5.61219C75.6421 5.61219 74.6514 6.60289 74.6514 7.83456V12.3061C74.6514 13.5378 73.6607 14.5285 72.429 14.5285C71.1973 14.5285 70.1799 13.5378 70.1799 12.3061V7.83456C70.1799 6.60289 69.1892 5.61219 67.9575 5.61219C66.7258 5.61219 65.7351 6.60289 65.7351 7.83456V12.3061C65.7351 16.0011 68.734 19 72.429 19Z" fill="white"/>
</svg>
